<svg width="82" height="60" viewBox="0 0 82 60" fill="none" xmlns="http://www.w3.org/2000/svg">
<path d="M62.9369 47.9373C58.2934 47.7669 53.897 45.8026 50.6722 42.4573C47.4474 39.112 45.6455 34.6465 45.6455 30C45.6455 25.3535 47.4474 20.888 50.6722 17.5427C53.897 14.1974 58.2934 12.233 62.9369 12.0627H79.8247V0H29.1612C21.352 0.221477 13.9369 3.47928 8.49162 9.08121C3.04631 14.6831 0 22.1876 0 30C0 37.8124 3.04631 45.3168 8.49162 50.9188C13.9369 56.5207 21.352 59.7785 29.1612 60H81.4652V47.9373H62.9369ZM38.8114 47.9373H28.8959C24.2524 47.7669 19.856 45.8026 16.6312 42.4573C13.4064 39.112 11.6045 34.6465 11.6045 30C11.6045 25.3535 13.4064 20.888 16.6312 17.5427C19.856 14.1974 24.2524 12.233 28.8959 12.0627H38.9803C35.0986 17.2373 33.0002 23.5313 33.0002 30C33.0002 36.4686 35.0986 42.7627 38.9803 47.9373H38.8114Z" fill="#1668E8"/>
</svg>
